# xmcd
#
# Track frame offsets:
#	150
#	9653
#	25080
#	46667
#	55096
#	71552
#	88829
#	111115
#	120884
#	134225
#	152076
#	166741
#	174451
#	191600
#
# Disc length: 2802 seconds
#
# Revision: 1
# Processed by: cddbd v1.5.2PL0 Copyright (c) Steve Scherf et al.
# Submitted via: audiograbber 1.83.01
#
DISCID=b00af00e
DTITLE=Reba McEntire - My Kind of Christmas
DYEAR=2017
DGENRE=Country Christmas
TTITLE0=Winter Wonderland
TTITLE1=The Christmas Song (Chestnuts Roasting On An Open Fire)
TTITLE2=Mary, Did You Know? [feat. Vince Gill and Amy Grant]
TTITLE3=Jingle Bell Rock
TTITLE4=O Holy Night
TTITLE5=Hard Candy Christmas
TTITLE6=Back To God (Acoustic Version) [feat. Lauren Daigle]
TTITLE7=Santa Claus Is Coming To Town
TTITLE8=O Come All Ye Faithful
TTITLE9=O Little Town Of Bethlehem [feat. Darius Rucker]
TTITLE10=White Christmas
TTITLE11=Jingle Bells
TTITLE12=I'll Be Home For Christmas
TTITLE13=Silent Night [feat. Kelly Clarkson and Trisha Yearwood]
EXTD=
EXTT0=
EXTT1=
EXTT2=
EXTT3=
EXTT4=
EXTT5=
EXTT6=
EXTT7=
EXTT8=
EXTT9=
EXTT10=
EXTT11=
EXTT12=
EXTT13=
PLAYORDER=
